<?xml version="1.0" encoding="UTF-8"?>
<!-- Generator: Adobe Illustrator 21.0.0, SVG Export Plug-In . SVG Version: 6.00 Build 0)  -->
<svg version="1.1" id="Layer_1" xmlns="http://www.w3.org/2000/svg" xmlns:xlink="http://www.w3.org/1999/xlink" x="0px" y="0px" width="621.6px" height="428.2px" viewBox="0 0 621.6 428.2" style="enable-background:new 0 0 621.6 428.2;" xml:space="preserve">
<style type="text/css">
	.st0{fill:#006838;}
</style>
<rect y="219.6" class="st0" width="42.5" height="16.3"/>
<rect x="56.1" y="219.6" class="st0" width="42.4" height="16.3"/>
<rect x="347.4" y="144.6" class="st0" width="165.6" height="43.5"/>
<rect x="578.2" y="193" class="st0" width="42.2" height="142"/>
<g>
	<path class="st0" d="M396,291.2c-11.5-24.8-34.2-44.2-60.8-51.9v-94.7l-52,0l0.2,94.3c-22.6,4.7-47,24.7-55.2,39.3   c-5.2-40-36.9-76-64.4-90h106.9v-43.5H93.1V210c61.3,0,92.1,41.7,90.5,92.3l-85.1,0.1v-57.3h-53c-32.1,0.6-45.3,25.2-45.3,41.2   v48.9l235.8-0.4c0-38.3,29.9-72.5,72.2-72.5c41.1,0,72.5,32.6,72.5,72.6l184.3-0.1V193h-40.5V245c-23.5,0.2-37.8,15.9-36.5,44v12.9   h-6.5v-13.1c0-24.1-19.3-43.9-43.3-43.9c-22.2,0-39.4,16.5-42.2,37.8V291.2z M56.3,272.8v29.4H42.7v-19.6c0.3-6,3.7-9.8,9.7-9.8   L56.3,272.8z M527.9,272.8v29.4h-15.7v-19.7c0.3-6,3.7-9.8,9.8-9.8L527.9,272.8z M431.3,302.3v-21.7c0-4,3.2-7.1,7.1-7.1   c4,0,7.2,3.2,7.2,7.1v21.7H431.3z"/>
	<polygon class="st0" points="0.4,353 19.1,353 19.1,389.6 73,353 105.6,353 60.5,383.4 102.4,425.5 76.4,425.6 45.3,394.1    19.2,411.5 19.3,425.6 0.4,425.6  "/>
	<rect x="111" y="353.1" class="st0" width="18.1" height="72.4"/>
	<path class="st0" d="M195.2,384c0.1-10.5-8.4-19-18.9-19c-9.8,0-17.9,7.5-19.3,17v43.5h-18.2v-72.5h18.2l-0.1,10.4   c5.4-7.5,14.6-10.2,22.9-10.2c18.1,0,32.9,14.3,32.7,32.3v39.9h-17.6L195.2,384z"/>
	<path class="st0" d="M238.7,352.9c7.6,29.3,35.5,52.8,69.3,53.6c25.3,0.6,47.8-13,60.9-32.5l-62.5-0.2l0.3-20.7h86.6v20.3   c0,0-0.5,5.6-3.5,9.8c-17.5,27.8-47.3,45.1-81.9,45.1c-46.2,0-85.4-34.5-93.3-75.2L238.7,352.9z"/>
	<path class="st0" d="M491.1,398.8c0,7,5.6,12.7,12.7,12.7c7,0,12.6-5.7,12.6-12.7v-18.5c0-7-5.6-12.6-12.6-12.6   c-7.1,0-12.7,5.6-12.7,12.6V398.8z M474,382.8c0-16.4,13.4-29.7,29.8-29.7c16.3,0,29.7,13.3,29.7,29.7v13.7   c0,16.4-13.4,29.7-29.7,29.7c-16.4,0-29.8-13.4-29.8-29.7V382.8z"/>
	<path class="st0" d="M419.8,411.9h18.6c7,0,12.7-5.7,12.7-12.7v-18.6c0-7-5.7-12.7-12.7-12.7h-18.6V411.9z M402,425.6v-72.3h36.4   c16.4,0,29.7,13.3,29.7,29.8v13.6c0,16.4-13.3,29.7-29.7,28.8H402z"/>
	<path class="st0" d="M556.3,358.5c0-1.2,7.6-5.6,12.6-5.6c5.3,0,11.4,2.7,14.6,6.4c4.2-4.1,8.9-6.5,15.2-6.5c12.8,0,23,10.2,23,23   l0,49.8h-18.1V373c0.3-4-2.9-7.3-7-7.3c-4,0-7.2,3.3-7.2,7.3v52.6h-17.8V373c0.4-4-3-7.3-6.9-7.3c-4.1,0-7.2,3.3-7.2,7.3v52.6   h-18.4V353h17.5V358.5z"/>
	<polygon class="st0" points="296,144.6 293.7,135.6 298.9,134.1 295.6,123.8 301.5,119.5 298,106.1 302.9,100.5 301.4,83.9    316.6,83.9 315,100.5 319.9,106.1 316.4,119.5 322.3,123.8 319,134.1 324.3,135.6 321.9,144.6  "/>
	<path class="st0" d="M309.4,69c-20.1,3.1-15.1,31.6-15.1,31.6c-17.3-5.3-7.7-31.3-7.7-31.3c-7.7,0.6-14.1,18.4-14.1,18.4   c-14.5-15.5,8.3-36.3,8.3-36.3c-12.7,2.8-20.9,14-20.9,14c-8-23.6,18.4-30.7,18.4-30.7c-7.6-2.2-17.9,2.6-17.9,2.6   c0.6-14.7,26.5-14.4,26.5-14.4c-3.2-6.2-17.2-3.3-17.2-3.3c13.1-19.1,32.3-3.6,32.3-3.6C301.6,7.7,309.4,0,309.4,0   s7.8,7.7,7.3,15.9c0,0,19.2-15.4,32.3,3.6c0,0-13.9-2.9-17.2,3.3c0,0,25.9-0.3,26.5,14.4c0,0-10.4-4.8-17.9-2.6   c0,0,26.4,7.1,18.4,30.7c0,0-8.2-11.3-20.9-14c0,0,22.8,20.7,8.3,36.3c0,0-6.4-17.8-14-18.4c0,0,9.5,26-7.8,31.3   C324.4,100.5,329.4,72,309.4,69"/>
</g>
</svg>